<svg xmlns="http://www.w3.org/2000/svg" width="53.392" height="53.392" viewBox="0 0 53.392 53.392">
  <g id="Grupo_53762" data-name="Grupo 53762" transform="translate(-1413.76 -722.107)">
    <g id="Grupo_53761" data-name="Grupo 53761">
      <g id="Calendar">
        <path id="Trazado_100472" data-name="Trazado 100472" d="M1462.7,727.446h-4.449v-1.779a3.56,3.56,0,1,0-7.119,0v1.779h-7.119v-1.779a3.56,3.56,0,1,0-7.119,0v1.779h-7.119v-1.779a3.559,3.559,0,1,0-7.119,0v1.779h-4.449a4.45,4.45,0,0,0-4.45,4.45v35.6a4.449,4.449,0,0,0,4.45,4.449h24.916a.89.89,0,1,0,0-1.78H1418.21a2.678,2.678,0,0,1-2.67-2.669V739.905h49.833v15.127a.889.889,0,1,0,1.779,0V731.9A4.45,4.45,0,0,0,1462.7,727.446Zm-9.788-1.779a1.779,1.779,0,1,1,3.559,0v5.339a1.779,1.779,0,1,1-3.559,0Zm-14.238,0a1.779,1.779,0,1,1,3.559,0v5.339a1.779,1.779,0,1,1-3.559,0Zm-14.238,0a1.78,1.78,0,1,1,3.559,0v5.339a1.78,1.78,0,1,1-3.559,0Zm40.934,12.458H1415.54V731.9a2.678,2.678,0,0,1,2.67-2.67h4.449v1.78a3.559,3.559,0,0,0,7.119,0v-1.78h7.119v1.78a3.56,3.56,0,0,0,7.119,0v-1.78h7.119v1.78a3.56,3.56,0,0,0,7.119,0v-1.78h4.449a2.678,2.678,0,0,1,2.67,2.67Z" fill="#39a900"/>
        <path id="Trazado_100473" data-name="Trazado 100473" d="M1438.677,746.134a1.78,1.78,0,0,0-1.78-1.78h-3.56a1.78,1.78,0,0,0-1.779,1.78V748.8a1.78,1.78,0,0,0,1.779,1.78h3.56a1.78,1.78,0,0,0,1.78-1.78Zm-5.34,2.669v-2.669h3.56V748.8Z" fill="#39a900"/>
        <path id="Trazado_100474" data-name="Trazado 100474" d="M1428,746.134a1.78,1.78,0,0,0-1.779-1.78h-3.56a1.78,1.78,0,0,0-1.78,1.78V748.8a1.78,1.78,0,0,0,1.78,1.78h3.56A1.78,1.78,0,0,0,1428,748.8Zm-5.339,2.669v-2.669h3.56V748.8Z" fill="#39a900"/>
        <path id="Trazado_100475" data-name="Trazado 100475" d="M1458.254,750.583a1.779,1.779,0,0,0,1.779-1.78v-2.669a1.779,1.779,0,0,0-1.779-1.78h-3.56a1.779,1.779,0,0,0-1.779,1.78V748.8a1.779,1.779,0,0,0,1.779,1.78Zm-3.56-4.449h3.56V748.8h-3.56Z" fill="#39a900"/>
        <path id="Trazado_100476" data-name="Trazado 100476" d="M1438.677,754.142a1.78,1.78,0,0,0-1.78-1.779h-3.56a1.78,1.78,0,0,0-1.779,1.779v2.67a1.78,1.78,0,0,0,1.779,1.78h3.56a1.78,1.78,0,0,0,1.78-1.78Zm-5.34,2.67v-2.67h3.56v2.67Z" fill="#39a900"/>
        <path id="Trazado_100477" data-name="Trazado 100477" d="M1428,754.142a1.78,1.78,0,0,0-1.779-1.779h-3.56a1.78,1.78,0,0,0-1.78,1.779v2.67a1.78,1.78,0,0,0,1.78,1.78h3.56a1.78,1.78,0,0,0,1.779-1.78Zm-5.339,2.67v-2.67h3.56v2.67Z" fill="#39a900"/>
        <path id="Trazado_100478" data-name="Trazado 100478" d="M1436.9,760.372h-3.56a1.779,1.779,0,0,0-1.779,1.779v2.67a1.78,1.78,0,0,0,1.779,1.78h3.56a1.78,1.78,0,0,0,1.78-1.78v-2.67A1.779,1.779,0,0,0,1436.9,760.372Zm-3.56,4.449v-2.67h3.56v2.67Z" fill="#39a900"/>
        <path id="Trazado_100479" data-name="Trazado 100479" d="M1444.016,750.583h3.559a1.78,1.78,0,0,0,1.78-1.78v-2.669a1.78,1.78,0,0,0-1.78-1.78h-3.559a1.78,1.78,0,0,0-1.78,1.78V748.8A1.78,1.78,0,0,0,1444.016,750.583Zm0-4.449h3.559V748.8h-3.559Z" fill="#39a900"/>
        <path id="Trazado_100480" data-name="Trazado 100480" d="M1442.236,756.812a1.78,1.78,0,0,0,1.78,1.78.89.89,0,1,0,0-1.78v-2.67h3.559a.89.89,0,1,0,0-1.779h-3.559a1.78,1.78,0,0,0-1.78,1.779Z" fill="#39a900"/>
        <path id="Trazado_100481" data-name="Trazado 100481" d="M1426.219,760.372h-3.56a1.779,1.779,0,0,0-1.78,1.779v2.67a1.78,1.78,0,0,0,1.78,1.78h3.56a1.78,1.78,0,0,0,1.779-1.78v-2.67A1.779,1.779,0,0,0,1426.219,760.372Zm-3.56,4.449v-2.67h3.56v2.67Z" fill="#39a900"/>
        <path id="Trazado_100482" data-name="Trazado 100482" d="M1455.584,752.363a11.568,11.568,0,1,0,11.568,11.568A11.568,11.568,0,0,0,1455.584,752.363Zm0,21.357a9.789,9.789,0,1,1,9.789-9.789A9.789,9.789,0,0,1,1455.584,773.72Z" fill="#39a900"/>
        <path id="Trazado_100483" data-name="Trazado 100483" d="M1460.726,760.2l-6.922,6.921-3.145-3.146a.89.89,0,0,0-1.259,1.258l3.775,3.776a.891.891,0,0,0,1.259,0l7.55-7.551a.89.89,0,0,0-1.258-1.258Z" fill="#39a900"/>
      </g>
    </g>
  </g>
</svg>
